<svg width="96" height="96" viewBox="0 0 96 96" fill="none" xmlns="http://www.w3.org/2000/svg">
  <rect x="6" y="6" width="84" height="84" rx="24"
        fill="#02120B"
        stroke="#AFFF43"
        stroke-opacity="0.6"
        stroke-width="2"/>

  <!-- сетка -->
  <g stroke="#CFFF67" stroke-opacity="0.35" stroke-width="1.4">
    <path d="M24 26L48 16L72 26"/>
    <path d="M24 26L36 50L60 50L72 26"/>
    <path d="M36 50L48 72L60 50"/>
  </g>

  <!-- точки -->
  <g fill="#D8FF67">
    <circle cx="24" cy="26" r="3"/>
    <circle cx="48" cy="16" r="3"/>
    <circle cx="72" cy="26" r="3"/>
    <circle cx="36" cy="50" r="3"/>
    <circle cx="60" cy="50" r="3"/>
    <circle cx="48" cy="72" r="3"/>
  </g>

  <!-- лист -->
  <path d="M30 66C44 54 60 56 66 40C56 42 42 42 30 66Z"
        stroke="#9CFF3F"
        stroke-width="2.5"
        fill="none"
        stroke-linecap="round"
        stroke-linejoin="round"/>

  <path d="M34 62L58 44"
        stroke="#9CFF3F"
        stroke-width="1.6"
        stroke-linecap="round"/>
</svg>
